<svg class="diagram-root" style="background: #f5f6f6" xmlns="http://www.w3.org/2000/svg" xmlns:xlink="http://www.w3.org/1999/xlink"><style>.diagram-root { font-family: "Helvetica Neue", sans-serif; font-size: 12px; } .t { overflow: visible; } .t-bg { y: 40; fill: #fff;   } .th { fill: #005aa0;   } .tht { fill: #fff; font-size: 14px;  } .tf { fill: #323c46; overflow: visible; } .tf.pk { fill: #005aa0; font-weight: bold; } .tf.fk { font-weight: bold; } .ty { fill: #adb1b5; font-weight: normal; text-anchor: end; } .r { fill: transparent; stroke: #c3c3c3; stroke-width: 1; } .l { stroke: 1; } .i { fill: #c2c7ce; stroke: #c2c7ce; } .i.ix { fill: #afb3b6; stroke: #000; } .fa { fill: transparent; overflow: visible; } .fa .bg.hover { fill: #f7f7f7; } .c { cy: 12; r: 4; stroke: #d2d2dc; fill: #d2d2dc; } .hr { fill: transparent; stroke: #323c46; stroke-opacity: 0.035; stroke-width: 13; } .dc { stroke: #fa5a3c; fill: #fa5a3c; } .x { stroke: white; stroke-width: 1; } .hl .th { fill: #1b9bff; } .hl .tht {  } .fhl .bg { fill: #e7f4ff; } .fhls .bg {  } .r.hl { stroke: #1b9bff; } .dim { opacity: 0.25; }</style><g class="drawing-wrapper" transform="translate(16, 11) scale(1,1)"><g class="rs"><path d="M 282 77 m -1, 0 a 1,1 0 1,0 2,0 a 1,1 0 1,0 -2,0 M 282 77 m -0.5, 0 a 0.5,0.5 0 1,0 1,0 a 0.5,0.5 0 1,0 -1,0  M282 77 L282 77 270 77 M276 83 L276 83 276 71 M270 77 Q 244.35 77, 218.7 76.5 T 167.39 76 M 155.39 76 m -1, 0 a 1,1 0 1,0 2,0 a 1,1 0 1,0 -2,0 M 155.39 76 m -0.5, 0 a 0.5,0.5 0 1,0 1,0 a 0.5,0.5 0 1,0 -1,0  M155.39 76 L155.39 76 167.39 76 M161.39 82 L161.39 82 161.39 70" id="h3304753978" class="r"></path><path d="M 282 102 m -1, 0 a 1,1 0 1,0 2,0 a 1,1 0 1,0 -2,0 M 282 102 m -0.5, 0 a 0.5,0.5 0 1,0 1,0 a 0.5,0.5 0 1,0 -1,0  M282 102 L282 102 270 102 M276 108 L276 108 276 96 M270 102 Q 245.26 102, 220.52 150.5 T 171.04 199 M 159.04 199 m -1, 0 a 1,1 0 1,0 2,0 a 1,1 0 1,0 -2,0 M 159.04 199 m -0.5, 0 a 0.5,0.5 0 1,0 1,0 a 0.5,0.5 0 1,0 -1,0  M159.04 199 L159.04 199 171.04 199 M165.04 205 L165.04 205 165.04 193" id="h3782856632" class="r"></path><path d="M 283 235 m -1, 0 a 1,1 0 1,0 2,0 a 1,1 0 1,0 -2,0 M 283 235 m -0.5, 0 a 0.5,0.5 0 1,0 1,0 a 0.5,0.5 0 1,0 -1,0  M283 235 L283 235 271 235 M277 241 L277 241 277 229 M271 235 Q 246.01 235, 221.02 217 T 171.04 199 M 159.04 199 m -1, 0 a 1,1 0 1,0 2,0 a 1,1 0 1,0 -2,0 M 159.04 199 m -0.5, 0 a 0.5,0.5 0 1,0 1,0 a 0.5,0.5 0 1,0 -1,0  M159.04 199 L159.04 199 171.04 199 M165.04 205 L165.04 205 165.04 193" id="h1736270986" class="r"></path><path d="M 283 260 m -1, 0 a 1,1 0 1,0 2,0 a 1,1 0 1,0 -2,0 M 283 260 m -0.5, 0 a 0.5,0.5 0 1,0 1,0 a 0.5,0.5 0 1,0 -1,0  M283 260 L283 260 271 260 M277 266 L277 266 277 254 M271 260 Q 245.1 260, 219.2 168 T 167.39 76 M 155.39 76 m -1, 0 a 1,1 0 1,0 2,0 a 1,1 0 1,0 -2,0 M 155.39 76 m -0.5, 0 a 0.5,0.5 0 1,0 1,0 a 0.5,0.5 0 1,0 -1,0  M155.39 76 L155.39 76 167.39 76 M161.39 82 L161.39 82 161.39 70" id="h3233325729" class="r"></path><path d="M 146.38 407 m -1, 0 a 1,1 0 1,0 2,0 a 1,1 0 1,0 -2,0 M 146.38 407 m -0.5, 0 a 0.5,0.5 0 1,0 1,0 a 0.5,0.5 0 1,0 -1,0  M146.38 407 L146.38 407 158.38 407 M152.38 413 L152.38 413 152.38 401 M158.38 407 Q 187.79 407, 217.19 406 T 276 405 M 288 405 m -1, 0 a 1,1 0 1,0 2,0 a 1,1 0 1,0 -2,0 M 288 405 m -0.5, 0 a 0.5,0.5 0 1,0 1,0 a 0.5,0.5 0 1,0 -1,0  M288 405 L288 405 276 405 M 288 411 m -1, 0 a 1,1 0 1,0 2,0 a 1,1 0 1,0 -2,0 M 288 411 m -0.5, 0 a 0.5,0.5 0 1,0 1,0 a 0.5,0.5 0 1,0 -1,0  M288 411 L288 411 281 405 288 399 M 288 399 m -1, 0 a 1,1 0 1,0 2,0 a 1,1 0 1,0 -2,0 M 288 399 m -0.5, 0 a 0.5,0.5 0 1,0 1,0 a 0.5,0.5 0 1,0 -1,0 " id="h1838876539" class="r"></path><path d="M 288 405 m -1, 0 a 1,1 0 1,0 2,0 a 1,1 0 1,0 -2,0 M 288 405 m -0.5, 0 a 0.5,0.5 0 1,0 1,0 a 0.5,0.5 0 1,0 -1,0  M288 405 L288 405 276 405 M282 411 L282 411 282 399 M276 405 Q 249.76 405, 223.52 302 T 171.04 199 M 159.04 199 m -1, 0 a 1,1 0 1,0 2,0 a 1,1 0 1,0 -2,0 M 159.04 199 m -0.5, 0 a 0.5,0.5 0 1,0 1,0 a 0.5,0.5 0 1,0 -1,0  M159.04 199 L159.04 199 171.04 199 M 159.04 205 m -1, 0 a 1,1 0 1,0 2,0 a 1,1 0 1,0 -2,0 M 159.04 205 m -0.5, 0 a 0.5,0.5 0 1,0 1,0 a 0.5,0.5 0 1,0 -1,0  M159.04 205 L159.04 205 166.04 199 159.04 193 M 159.04 193 m -1, 0 a 1,1 0 1,0 2,0 a 1,1 0 1,0 -2,0 M 159.04 193 m -0.5, 0 a 0.5,0.5 0 1,0 1,0 a 0.5,0.5 0 1,0 -1,0 " id="h1168633520" class="r"></path></g><g class="hrs"></g><g class="ts"><svg width="149.39" height="100" x="6" y="19" id="h3708248841" class="t"><rect height="40" width="149.39" class="th"></rect><text x="13" y="25" class="tht">Departments</text><rect height="60" width="149.39" class="t-bg"></rect><text x="13" y="61" class="tf pk">dept_no<tspan x="136.39" class="ty">varchar</tspan></text><path d="M7,14A2,2 0 0,1 5,12A2,2 0 0,1 7,10A2,2 0 0,1 9,12A2,2 0 0,1 7,14M12.65,10C11.83,7.67 9.61,6 7, 6A6, 6 0 0, 0 1, 12A6, 6 0 0, 0 7, 18C9.61, 18 11.83, 16.33 12.65, 14H17V18H21V14H23V10H12.65Z" class="i pk" transform="translate(76.37632812499999, 48) scale(0.65)"></path><text x="13" y="86" class="tf">dept_name<tspan x="136.39" class="ty">varchar</tspan></text></svg><svg width="142.04" height="200" x="17" y="142" id="h3299212598" class="t"><rect height="40" width="142.04" class="th"></rect><text x="13" y="25" class="tht">Employees</text><rect height="160" width="142.04" class="t-bg"></rect><text x="13" y="61" class="tf fk">emp_no<tspan x="129.04" class="ty">int</tspan></text><text x="13" y="86" class="tf">birth_date<tspan x="129.04" class="ty">date</tspan></text><text x="13" y="111" class="tf">first_name<tspan x="129.04" class="ty">varchar</tspan></text><text x="13" y="136" class="tf">last_name<tspan x="129.04" class="ty">varchar</tspan></text><text x="13" y="161" class="tf">gender<tspan x="129.04" class="ty">varchar</tspan></text><text x="13" y="186" class="tf">hire_date<tspan x="129.04" class="ty">date</tspan></text></svg><svg width="149.39" height="150" x="282" y="20" id="h526843498" class="t"><rect height="40" width="149.39" class="th"></rect><text x="13" y="25" class="tht">Managers</text><rect height="110" width="149.39" class="t-bg"></rect><text x="13" y="61" class="tf pk">dept_no<tspan x="136.39" class="ty">varchar</tspan></text><path d="M7,14A2,2 0 0,1 5,12A2,2 0 0,1 7,10A2,2 0 0,1 9,12A2,2 0 0,1 7,14M12.65,10C11.83,7.67 9.61,6 7, 6A6, 6 0 0, 0 1, 12A6, 6 0 0, 0 7, 18C9.61, 18 11.83, 16.33 12.65, 14H17V18H21V14H23V10H12.65Z" class="i pk" transform="translate(76.37632812499999, 48) scale(0.65)"></path><text x="13" y="86" class="tf pk">emp_no<tspan x="136.39" class="ty">int</tspan></text><path d="M7,14A2,2 0 0,1 5,12A2,2 0 0,1 7,10A2,2 0 0,1 9,12A2,2 0 0,1 7,14M12.65,10C11.83,7.67 9.61,6 7, 6A6, 6 0 0, 0 1, 12A6, 6 0 0, 0 7, 18C9.61, 18 11.83, 16.33 12.65, 14H17V18H21V14H23V10H12.65Z" class="i pk" transform="translate(103.71617187499999, 73) scale(0.65)"></path><text x="13" y="111" class="tf">from_date<tspan x="136.39" class="ty">date</tspan></text><text x="13" y="136" class="tf">to_date<tspan x="136.39" class="ty">date</tspan></text></svg><svg width="149.39" height="150" x="283" y="178" id="h4086156755" class="t"><rect height="40" width="149.39" class="th"></rect><text x="13" y="25" class="tht">Dept_emp</text><rect height="110" width="149.39" class="t-bg"></rect><text x="13" y="61" class="tf pk">emp_no<tspan x="136.39" class="ty">int</tspan></text><path d="M7,14A2,2 0 0,1 5,12A2,2 0 0,1 7,10A2,2 0 0,1 9,12A2,2 0 0,1 7,14M12.65,10C11.83,7.67 9.61,6 7, 6A6, 6 0 0, 0 1, 12A6, 6 0 0, 0 7, 18C9.61, 18 11.83, 16.33 12.65, 14H17V18H21V14H23V10H12.65Z" class="i pk" transform="translate(103.71617187499999, 48) scale(0.65)"></path><text x="13" y="86" class="tf pk">dept_no<tspan x="136.39" class="ty">varchar</tspan></text><path d="M7,14A2,2 0 0,1 5,12A2,2 0 0,1 7,10A2,2 0 0,1 9,12A2,2 0 0,1 7,14M12.65,10C11.83,7.67 9.61,6 7, 6A6, 6 0 0, 0 1, 12A6, 6 0 0, 0 7, 18C9.61, 18 11.83, 16.33 12.65, 14H17V18H21V14H23V10H12.65Z" class="i pk" transform="translate(76.37632812499999, 73) scale(0.65)"></path><text x="13" y="111" class="tf">from_data<tspan x="136.39" class="ty">date</tspan></text><text x="13" y="136" class="tf">to_date<tspan x="136.39" class="ty">date</tspan></text></svg><svg width="123.38" height="150" x="23" y="350" id="h3858243705" class="t"><rect height="40" width="123.38" class="th"></rect><text x="13" y="25" class="tht">Salaries</text><rect height="110" width="123.38" class="t-bg"></rect><text x="13" y="61" class="tf pk">emp_no<tspan x="110.38" class="ty">int</tspan></text><path d="M7,14A2,2 0 0,1 5,12A2,2 0 0,1 7,10A2,2 0 0,1 9,12A2,2 0 0,1 7,14M12.65,10C11.83,7.67 9.61,6 7, 6A6, 6 0 0, 0 1, 12A6, 6 0 0, 0 7, 18C9.61, 18 11.83, 16.33 12.65, 14H17V18H21V14H23V10H12.65Z" class="i pk" transform="translate(77.706171875, 48) scale(0.65)"></path><text x="13" y="86" class="tf">salary<tspan x="110.38" class="ty">int</tspan></text><text x="13" y="111" class="tf">from_data<tspan x="110.38" class="ty">date</tspan></text><text x="13" y="136" class="tf">to_data<tspan x="110.38" class="ty">date</tspan></text></svg><svg width="123.38" height="150" x="288" y="348" id="h3517680912" class="t"><rect height="40" width="123.38" class="th"></rect><text x="13" y="25" class="tht">Titles</text><rect height="110" width="123.38" class="t-bg"></rect><text x="13" y="61" class="tf pk">emp_no<tspan x="110.38" class="ty">int</tspan></text><path d="M7,14A2,2 0 0,1 5,12A2,2 0 0,1 7,10A2,2 0 0,1 9,12A2,2 0 0,1 7,14M12.65,10C11.83,7.67 9.61,6 7, 6A6, 6 0 0, 0 1, 12A6, 6 0 0, 0 7, 18C9.61, 18 11.83, 16.33 12.65, 14H17V18H21V14H23V10H12.65Z" class="i pk" transform="translate(77.706171875, 48) scale(0.65)"></path><text x="13" y="86" class="tf">title<tspan x="110.38" class="ty">varchar</tspan></text><text x="13" y="111" class="tf">from_date<tspan x="110.38" class="ty">date</tspan></text><text x="13" y="136" class="tf">to_date<tspan x="110.38" class="ty">date</tspan></text></svg></g></g><text class="qdbd-link" x="10" y="20">www.quickdatabasediagrams.com</text></svg>